PathFileType	4	(X/Y/Z)	Kaydara	
DataRate	CameraRate	NumFrames	NumMarkers	Units	OrigDataRate	OrigDataStartFrame	OrigNumFrames	
120.00	120.00	4	72	mm	120.00	66	261	
Frame#	Time	Hips			RightUpLeg			RightLeg			RightFoot			RightFoot_End			LeftUpLeg			LeftLeg			LeftFoot			LeftFoot_End			Spine			Spine1			Spine2			Spine3			Neck			Head			Head_End			RightShoulder			RightArm			RightForeArm			RightHand			RightHandThumb1			RightHandThumb2			RightHandThumb3			RightHandThumb3_End			RightInHandIndex			RightHandIndex1			RightHandIndex2			RightHandIndex3			RightHandIndex3_End			RightInHandMiddle			RightHandMiddle1			RightHandMiddle2			RightHandMiddle3			RightHandMiddle3_End			RightInHandRing			RightHandRing1			RightHandRing2			RightHandRing3			RightHandRing3_End			RightInHandPinky			RightHandPinky1			RightHandPinky2			RightHandPinky3			RightHandPinky3_End			LeftShoulder			LeftArm			LeftForeArm			LeftHand			LeftHandThumb1			LeftHandThumb2			LeftHandThumb3			LeftHandThumb3_End			LeftInHandIndex			LeftHandIndex1			LeftHandIndex2			LeftHandIndex3			LeftHandIndex3_End			LeftInHandMiddle			LeftHandMiddle1			LeftHandMiddle2			LeftHandMiddle3			LeftHandMiddle3_End			LeftInHandRing			LeftHandRing1			LeftHandRing2			LeftHandRing3			LeftHandRing3_End			LeftInHandPinky			LeftHandPinky1			LeftHandPinky2			LeftHandPinky3			LeftHandPinky3_End			
		X1	Y1	Z1	X2	Y2	Z2	X3	Y3	Z3	X4	Y4	Z4	X5	Y5	Z5	X6	Y6	Z6	X7	Y7	Z7	X8	Y8	Z8	X9	Y9	Z9	X10	Y10	Z10	X11	Y11	Z11	X12	Y12	Z12	X13	Y13	Z13	X14	Y14	Z14	X15	Y15	Z15	X16	Y16	Z16	X17	Y17	Z17	X18	Y18	Z18	X19	Y19	Z19	X20	Y20	Z20	X21	Y21	Z21	X22	Y22	Z22	X23	Y23	Z23	X24	Y24	Z24	X25	Y25	Z25	X26	Y26	Z26	X27	Y27	Z27	X28	Y28	Z28	X29	Y29	Z29	X30	Y30	Z30	X31	Y31	Z31	X32	Y32	Z32	X33	Y33	Z33	X34	Y34	Z34	X35	Y35	Z35	X36	Y36	Z36	X37	Y37	Z37	X38	Y38	Z38	X39	Y39	Z39	X40	Y40	Z40	X41	Y41	Z41	X42	Y42	Z42	X43	Y43	Z43	X44	Y44	Z44	X45	Y45	Z45	X46	Y46	Z46	X47	Y47	Z47	X48	Y48	Z48	X49	Y49	Z49	X50	Y50	Z50	X51	Y51	Z51	X52	Y52	Z52	X53	Y53	Z53	X54	Y54	Z54	X55	Y55	Z55	X56	Y56	Z56	X57	Y57	Z57	X58	Y58	Z58	X59	Y59	Z59	X60	Y60	Z60	X61	Y61	Z61	X62	Y62	Z62	X63	Y63	Z63	X64	Y64	Z64	X65	Y65	Z65	X66	Y66	Z66	X67	Y67	Z67	X68	Y68	Z68	X69	Y69	Z69	X70	Y70	Z70	X71	Y71	Z71	X72	Y72	Z72	

66	0.542	2081.203	893.81699	129.612	2169.849248416897	901.5610015902678	89.55583934213671	2063.6744688077147	502.38262547502154	19.946560601516882	2036.2422054996962	109.52701732856787	5.358427202531456	1919.753482096426	40.73006960532476	143.49091821033713	2005.8752504462902	860.5628107985017	183.4223754013099	1902.6606020983872	470.77624402198643	296.34861581491424	1789.811752904819	74.96592277035519	455.1399496439386	1642.5175055263262	25.268548652954973	345.3091548514748	2018.520659098888	1011.7716844873934	78.87342089829592	1958.9489111412606	1070.7533554701265	30.25378670902146	1893.1548627990037	1125.6743769957745	-23.088269746598616	1825.5347120104086	1167.6385826478247	-78.37918223111397	1751.7740158008899	1214.0089048506816	-134.4860641137927	1676.6733008495946	1250.3755969033512	-178.62007703865106	1537.810166119556	1328.2077900317568	-189.48779752926453	1799.1165411257673	1211.694744970435	-132.71244257691046	1880.028562332426	1250.1125795657977	-208.3869118743344	1974.196205107203	1035.5686400386264	-286.7715627935497	2139.254434112203	918.5066668250679	-374.05675040222826	2143.769086061786	926.9972061348317	-396.0636995102882	2139.0018970527767	922.7926249574699	-419.06635733436434	2137.624906048923	916.8529280011209	-433.98198085340607	2138.139030605921	909.324891719044	-445.47254563765586	2152.8798378806214	917.3551154732861	-394.0310047959004	2173.4085698590566	902.8013623535204	-420.8821796244492	2178.4437135441717	890.6713829764792	-440.08245129612146	2173.3206524568704	885.6138303076284	-451.11694425739825	2163.5131235080294	883.1030002378243	-459.6415471488078	2157.009905939616	909.5753789874823	-390.1197485930558	2179.269610256306	891.1725834346557	-414.19382624412157	2185.2307660611696	876.9545488633614	-434.54260829576873	2179.273969533493	870.3816652378437	-447.56616854512487	2168.651633347167	867.4053165352336	-456.75306599633444	2159.5146583955375	904.448117498986	-386.6641506749328	2181.9620414992964	883.4981222761893	-405.2188720056576	2187.5986269750797	870.1311384816551	-422.30122883340607	2182.0869078428263	863.2735677089439	-434.5163252505192	2172.2101510668977	860.2298227001019	-442.98980622607075	2160.9345843683695	898.9780790615835	-381.9593637429413	2182.7767127807274	876.3783379114994	-396.06202787855807	2187.8793012721644	864.2456266347635	-408.64021407044805	2184.143966991636	858.5524607110814	-417.01750107427745	2175.558746712098	855.4583967640372	-424.21718888705294	1753.3293250319473	1183.9182703278873	-99.47031856190736	1693.081414814469	1090.9446286898178	-44.57914512272161	1895.3815246362599	1001.3060668131604	-167.0766337002895	2096.327812359698	934.8155398582159	-281.3116219860026	2107.3472838459406	949.9696765169217	-298.0349394259241	2136.4668329820674	955.5565719419999	-298.05578515637274	2159.014234743776	956.2615375419839	-297.1754873257675	2179.7516956666786	954.123920394954	-295.6761407482044	2115.6511076149436	940.0533563842083	-298.05798862375394	2157.232592955035	935.7510402407152	-312.9849602643884	2190.6524635422556	932.1515291758041	-314.3114176487285	2208.815934153002	932.5102708658213	-309.732941705738	2222.0868558756983	934.5586582468237	-302.2987738702443	2120.586999466182	931.509596073357	-294.67401027128324	2163.812876268411	922.692100695216	-307.4055182656445	2200.8026020409475	917.6501851719955	-308.3466888549644	2222.9666492612173	917.5483674473109	-302.5799866708329	2237.609209684233	919.5297697918598	-294.3275428145395	2122.990689168281	925.5676927456894	-291.9914384449574	2163.750692283449	912.4619976942058	-301.3335160315604	2196.4567406426104	906.9427630804097	-301.6153598858651	2218.083014263224	906.2472787327973	-295.7669397341449	2231.9678926640504	907.8272663037857	-287.872043147178	2124.733024551219	918.966320979357	-287.76505779305853	2163.1302018422516	902.8226392867559	-294.0318958379184	2189.8688965668657	896.7056649785445	-293.37609590186054	2205.9087143250936	895.3773002132417	-288.68382331897743	2218.361274285855	896.3043725750724	-281.44481996205707
67	0.55	2081.203	893.81699	129.612	2170.0000683072876	901.6270555599962	89.6896727364965	2063.5726264977425	502.44040615550944	20.462374732434714	2036.2883713148492	109.55978593386254	6.155583466906391	1919.792954830659	40.83851005783978	144.34961724883254	2005.6967594698242	860.4846638149446	183.29426194095217	1901.9243054209571	470.9379169083102	296.51640094073156	1788.9771468948325	75.24076563020678	455.6733850939346	1641.5744124579437	25.600512609819358	345.9457647148512	2018.621466026175	1011.8176212941116	78.8562263767246	1959.1382023271497	1070.8757781690658	30.21998256296695	1893.445782888091	1125.895265677143	-23.148567949245297	1825.9419609322247	1167.9919979555127	-78.48795063981956	1752.2944414567223	1214.4955243691697	-134.63834618923954	1677.2125069306323	1250.927076210237	-178.7488575986675	1538.3422428930432	1328.7413472806427	-189.67256530296552	1799.6714367830114	1212.2817446239926	-132.7590090178611	1880.9495684177125	1251.375175696761	-208.2445588073285	1975.9802904630799	1037.0947351414552	-287.79074165232686	2142.470201539361	921.3040781920948	-376.20349817305373	2147.1671009066968	930.0934420255097	-398.21132917727857	2142.5520223245876	926.0923861438487	-421.459186531742	2141.2763580041233	920.2773069371609	-436.56849568266193	2141.8710234035657	912.8385101174325	-448.24013141390026	2156.282834774103	920.4264838320235	-396.24409746758397	2177.0600060458055	906.1885862955024	-423.35444536373257	2182.2425747932884	894.2299065039404	-442.8247904798611	2177.1816719063195	889.241664155214	-454.03764559332916	2167.4056924604815	886.7631175098385	-462.7169351746505	2160.390532002545	912.5868814256182	-392.3904343431566	2182.8804570488173	894.4597985074507	-416.7484325048272	2188.9986930017512	880.4197027138041	-437.3987842255136	2183.1150687343234	873.9261279149792	-450.6408357152232	2172.5263739336324	870.9830137701005	-459.9985887154788	2162.8734124667335	907.4097139463134	-388.96820347840946	2185.5089495763627	886.6647801514825	-407.8042589027862	2191.2782101861158	873.4432678087162	-425.1560541889878	2185.8348172854376	866.6570855239202	-437.58539420190107	2175.9886247829622	863.642169401918	-446.22118566563256	2164.2587438406467	901.8695038491267	-384.2999576491165	2186.2531332351964	879.4161829446307	-398.6808865086955	2191.4545279303366	867.3840474882186	-411.48387869208017	2187.7654294095355	861.7352591575374	-420.0218120020453	2179.2052135194126	858.6623003052605	-427.36779521373956	1753.7428173019566	1184.2155237696672	-99.70866733792958	1692.9359123787267	1090.3056240606375	-46.866040254774	1895.8590914746335	1001.4928103156881	-169.84727648259633	2098.100768529319	937.2191552506326	-284.14075636750164	2109.3108940032703	952.6936093870736	-300.62317519310704	2138.5187259028994	958.4160939920171	-300.353160693077	2161.122962267336	959.2000617936189	-299.3035272401405	2181.9038363397253	957.1151074807494	-297.691427764174	2117.6278760278515	942.7706496845915	-300.75585214192324	2159.450312515223	938.8071415233949	-315.5506178195829	2192.9720985109275	935.3405829392549	-316.7174818810165	2211.1479262404696	935.7118032164515	-311.9859017471072	2224.3946680540075	937.7231866975892	-304.3886526480714	2122.5396292818623	934.1682669114989	-297.46360884432636	2165.987479389421	925.649551137443	-310.11580616885846	2203.0843716073164	920.743752611208	-310.89528536313117	2225.261378145663	920.652689707758	-304.94983961012855	2239.8765374146	922.5915137592093	-296.5218636953929	2124.9208019911184	928.1773051433407	-294.8501018914514	2165.8621923926626	915.2997575021398	-304.1836194977205	2198.6571557907514	909.8895158996711	-304.33737338151633	2220.293543633244	909.1992862583502	-298.32335742458565	2234.151519487043	910.7368122427711	-290.2666428839953	2126.6248008989237	921.5016237145059	-290.70024213355794	2165.1670972623187	905.5248750863602	-297.00930546099744	2191.969181961659	899.4791319206055	-296.27099634630304	2208.0125959897364	898.1468419041755	-291.4676421901878	2220.439150363592	899.0318313127425	-284.09088492254733
68	0.558	2081.203	893.81699	129.612	2170.128306378105	901.6590105373875	89.77163846784127	2063.4303068864842	502.4640500920635	20.96687736152187	2036.312553762411	109.56462615659949	6.930356243026425	1919.817695799497	40.896243649682845	145.1778117007469	2005.5411400071353	860.4403695331652	183.21724129081815	1901.5548504546282	471.01961751629864	296.6657269670862	1788.482042404965	75.47307475062811	456.2608819524011	1641.2869790234133	26.3619207923689	345.96647801626443	2018.7282331319102	1011.8680780995674	78.84313917042215	1959.3194377999619	1070.9899411510946	30.191537863528705	1893.7116051787157	1126.0895479850778	-23.201965256610933	1826.3056797813072	1168.29352129463	-78.58717460821542	1752.752432107374	1214.9045430568654	-134.77839498459747	1677.6822386043607	1251.3842357579474	-178.86983094654616	1538.8074214484013	1329.1856918083774	-189.84121649666776	1800.1619190357512	1212.7927705162253	-132.80461083834405	1881.8093482650231	1252.578715203272	-208.06090703987851	1977.695149419644	1038.5754473248533	-288.7352228102821	2145.4757837214433	923.9839039008054	-378.22617478089444	2150.3560892859578	933.0628246729765	-400.2290815939502	2145.8899391883347	929.264160107567	-423.7147841006947	2144.712176266895	923.5732171075026	-439.01256528540733	2145.3834910115033	916.223530052754	-450.8608527277074	2159.472614409024	923.3703739602321	-398.3264727565739	2180.4889659413248	909.4382297732234	-425.68541413977545	2185.8123484440125	897.6485788882324	-445.4183619692244	2180.8110975798404	892.731380252403	-456.8057724923624	2171.06567762502	890.288670547077	-465.6371630373923	2163.554965848397	915.4723304056106	-394.5305194256	2186.264476593033	897.611877505319	-419.16217922478364	2192.5322162640127	883.7474698078419	-440.1060019523695	2186.7185659631205	877.3354026496248	-453.56197092077963	2176.16233963803	874.4294621095238	-463.08776495358063	2166.014104653147	910.2464739116841	-391.14200719655963	2188.826612194722	889.6993747926898	-410.2505013028413	2194.721589384946	876.621620902882	-427.8647393197362	2189.3432536038445	869.9090804314774	-440.5039498400514	2179.5264334782887	866.9267567608441	-449.2994173757241	2167.363017074242	904.6381701620388	-386.5110218562206	2189.4982552682673	882.3257519003286	-401.16249513370576	2194.792381425716	870.3932381676927	-414.1848333784472	2191.146891430377	864.7906726126167	-422.8802925853107	2182.6104840832227	861.7422691271519	-430.3702815849924	1754.1084269522544	1184.4505111071594	-99.92453530917925	1692.8967577167487	1089.9683445457001	-48.123491321130274	1896.6142208371045	1002.5797645299376	-171.43133820247854	2100.119299960383	940.5914628680173	-285.7223817380387	2111.507539458848	956.3603254668484	-301.99733613208866	2140.8037229938063	962.2159806296086	-301.4692197032793	2163.4651558664036	963.078899217124	-300.2697009489086	2184.2900107386063	961.0479628932578	-298.558183324665	2119.8362342644878	946.431897425394	-302.23012507850507	2161.885506335577	942.7853926510493	-316.91904579366314	2195.5069231643492	939.4488743898617	-317.9474850332512	2213.698662497864	939.8378600343538	-313.0781976043094	2226.9275228403403	941.8214002002023	-305.33212484750953	2124.7255430139144	937.7766717724085	-299.019685653204	2168.3825162498515	929.5385931179268	-311.6129115339432	2205.5843588141356	924.7665795244097	-312.2524042132412	2227.778751699014	924.6930551780503	-306.14612406900983	2242.3734640597013	926.5995202664601	-297.557888131909	2127.08567992196	931.7411760020025	-296.46751015801937	2168.198006442633	919.0790915755847	-305.80384749650176	2201.0802528441463	913.7767104624512	-305.8469736010594	2222.731185453919	913.0987547557113	-299.68386435974054	2236.5688824863328	914.6036569924967	-291.4793290979394	2128.754071509301	924.9979560739528	-292.3848507321266	2167.4333086829934	909.1802838066494	-298.74068764084683	2194.298003774548	903.2063213427274	-297.93153183194636	2210.3485025675877	901.8759276026516	-293.0280116133155	2222.755063498292	902.7279543267485	-285.5252508326935
69	0.567	2081.203	893.81699	129.612	2170.255231048348	901.6945585161081	89.86949646468447	2063.281210023187	502.48916446378996	21.515742234383712	2036.3423356764768	109.57670804169905	7.740491900172969	1919.8489735769704	40.94932499685817	146.03382007043473	2005.3859460502122	860.3926156988823	183.12549535905484	1901.4549146875245	470.99811470364136	296.71264967370547	1788.2063731182675	75.66213550677988	456.8561743758542	1641.3318348025434	27.20783693306442	345.77860199251546	2018.8375465947443	1011.9171599596574	78.8237154844731	1959.4959098382421	1071.0919332352287	30.15195906008442	1893.962524045947	1126.2563765993457	-23.270458472166943	1826.641061463644	1168.5455975301159	-78.70253237861544	1753.1683548715255	1215.2417340965253	-134.93596037723108	1678.1064721536127	1251.7551808043406	-179.01592621336505	1539.228183070888	1329.546063602513	-190.03287319154424	1800.6079540614935	1213.231829940702	-132.87631352336965	1882.6229990609404	1253.721002487967	-207.86961837395415	1979.3605424945379	1040.011135749778	-289.63353532503004	2148.3193601048683	926.5622600475228	-380.1681663242427	2153.3964557807763	935.9399545155975	-402.1607983225582	2149.0879955283685	932.3521294146861	-425.8903027309605	2148.012657034629	926.7902176188896	-441.38171399095296	2148.7630380184805	919.532880254837	-453.41182334102666	2162.509495389493	926.2192118411645	-400.3250548996426	2183.7724283113735	912.5994367360923	-427.935461988317	2189.240970336641	900.9839917588694	-447.9377833213313	2184.302336996029	896.1416593502771	-459.5055323478057	2174.590111074225	893.7383587070057	-468.4948705842332	2166.561908503476	918.2598434063092	-396.58969065564867	2189.4957441143006	900.6709113042435	-421.4993673940675	2195.9170984085963	886.9874392108245	-442.7444288411399	2190.1766976426416	880.6612991300026	-456.42146901538456	2179.655671990492	877.7963436266461	-466.1217908596906	2168.99387468281	912.9830778995138	-393.2368168517637	2191.9846166055627	892.6362409790988	-412.623199801832	2198.0082400940078	879.7064010915677	-430.5070259716244	2192.697776132829	873.0715442863686	-443.3632110727295	2182.912733407418	870.1252905533297	-452.3245453476995	2170.302203813602	907.3040210687551	-388.64554394082086	2192.5768822441037	885.1330521167258	-403.5739372077316	2197.9650620839043	873.3028273755876	-416.8219096548374	2194.3647411930315	867.7491109692422	-425.68035119901566	2185.853988040941	864.7281607195904	-433.3199904991983	1754.4434414699238	1184.6285870540728	-100.14767592833132	1692.9439605441416	1089.8574924572727	-48.55812198837927	1897.532401840841	1004.1960702887246	-172.08296082463949	2102.099751929747	943.9870428804505	-286.5039027755743	2113.6534131870217	960.0228198223076	-302.61872746833376	2143.037604256009	966.0147428991654	-301.869213883589	2165.7561647176567	966.9599623035717	-300.53998962619335	2186.625085488158	964.9868603370392	-298.74127415942525	2121.991826406756	950.0874647531433	-302.93670380550844	2164.2523372264022	946.7320467891443	-317.54925565299413	2197.970211046196	943.5246776424381	-318.4596721267278	2216.181171608114	943.9413300485946	-313.4673874242461	2229.398456344842	945.9122719628082	-305.5860389337701	2126.860058079568	941.3843569875218	-299.7924025871302	2170.7116821280815	933.4043178412371	-312.34693355778927	2208.0152493367586	928.7658754567352	-312.86653539075115	2230.231141119122	928.7221991531894	-306.61613133189155	2244.812361187209	930.6131622415713	-297.88195200555225	2129.2004431825676	935.3083254864072	-297.2897087097707	2170.4716192318615	922.844415008754	-306.63666920967853	2203.438603496173	917.6505252354707	-306.58443980910033	2225.108189894631	916.9971485448569	-300.2871661817608	2238.932219989754	918.4854825148828	-291.94770979396276	2130.835792207405	928.5042705324046	-293.2599605726979	2169.6421862397638	912.833372759431	-299.6608335517855	2196.5679286455693	906.9330436365168	-298.7895282946139	2212.6287407697623	905.6141709079583	-293.795022755373	2225.02129710269	906.4478333454399	-286.17669880004553
